<?xml version="1.0" encoding="utf-8"?>
<!-- Generator: Adobe Illustrator 26.5.0, SVG Export Plug-In . SVG Version: 6.00 Build 0)  -->
<svg version="1.1" id="Layer_5" xmlns="http://www.w3.org/2000/svg" xmlns:xlink="http://www.w3.org/1999/xlink" x="0px" y="0px"
	 viewBox="0 0 1920 551.11" style="enable-background:new 0 0 1920 551.11;" xml:space="preserve">
<style type="text/css">
	.st0{fill:#222831;}
	.st1{fill:#30475E;}
	.st2{fill:#F05454;}
</style>
<g>
	<g>
		<path class="st0" d="M601.03,257.26V109.3h34.45v120.06h73.77v27.9H601.03z"/>
		<polygon class="st0" points="864.38,229.76 864.38,257.24 749.84,257.24 749.84,109.28 861.67,109.28 861.67,136.76 
			783.86,136.76 783.86,168.71 852.56,168.71 852.56,195.54 783.86,195.54 783.86,229.76 		"/>
		<polygon class="st0" points="1052.95,109.28 988.89,257.24 955.07,257.24 891.01,109.28 928.25,109.28 973.24,214.96 
			1018.88,109.28 		"/>
		<polygon class="st0" points="1200.91,229.76 1200.91,257.24 1086.32,257.24 1086.32,109.28 1198.15,109.28 1198.15,136.76 
			1120.34,136.76 1120.34,168.71 1189.04,168.71 1189.04,195.54 1120.34,195.54 1120.34,229.76 		"/>
		<path class="st0" d="M1249.29,257.26V109.3h34.45v120.06h73.77v27.9H1249.29z"/>
		<path class="st0" d="M1544.78,259.79c-21,0-37.41-5.85-49.25-17.54c-11.83-11.69-17.75-28.46-17.75-50.31V109.3h34.45v81.8
			c0,13.95,2.88,24.06,8.66,30.33c5.78,6.27,13.81,9.41,24.1,9.41c10.43,0,18.53-3.13,24.31-9.41c5.77-6.27,8.66-16.38,8.66-30.33
			v-81.8h33.61v82.64c0,21.84-5.92,38.61-17.76,50.31C1581.99,253.95,1565.64,259.79,1544.78,259.79z"/>
		<path class="st0" d="M1787.21,134.24c-5.18-8.05-12.58-14.19-22.19-18.47c-9.56-4.33-20.99-6.49-34.22-6.49h-64.07v147.96h34.47
			v-40.76h29.59c13.24,0,24.66-2.21,34.22-6.54c9.61-4.38,17.01-10.57,22.19-18.52c5.23-7.95,7.85-17.51,7.85-28.64
			C1795.06,151.8,1792.45,142.29,1787.21,134.24z M1752.54,181.8c-5.33,4.53-13.24,6.74-23.65,6.74h-27.68v-51.33h27.68
			c10.42,0,18.32,2.21,23.65,6.64c5.38,4.43,8.05,10.77,8.05,18.92C1760.59,170.93,1757.92,177.27,1752.54,181.8z"/>
	</g>
	<g>
		<polygon class="st1" points="689.01,356.33 689.01,441.08 680.38,441.08 680.38,373.33 647.09,430.33 642.85,430.33 
			609.56,373.69 609.56,441.08 600.98,441.08 600.98,356.33 608.35,356.33 645.17,419.19 681.59,356.33 		"/>
		<path class="st1" d="M808.61,356.33h-8.83l-38.74,84.74h9.33l10.09-22.6h47.32l10.14,22.6h9.43L808.61,356.33z M783.74,411.22
			l20.38-45.6l20.43,45.6H783.74z"/>
		<path class="st1" d="M966.34,412.02c1.11-0.35,2.22-0.81,3.28-1.26c5.14-2.27,9.13-5.6,11.9-9.94c2.82-4.29,4.19-9.43,4.19-15.44
			c0-6.1-1.36-11.35-4.19-15.64c-2.77-4.34-6.76-7.67-11.9-9.94c-5.15-2.32-11.35-3.48-18.51-3.48h-31.73v84.74h8.98v-26.84h22.75
			c2.37,0,4.64-0.15,6.81-0.4l19.32,27.24h9.84L966.34,412.02z M950.85,406.57h-22.5V364.1h22.5c8.47,0,14.93,1.87,19.32,5.55
			c4.39,3.73,6.61,8.98,6.61,15.74c0,6.71-2.22,11.9-6.61,15.64C965.78,404.76,959.33,406.57,950.85,406.57z"/>
		<polygon class="st1" points="1136.43,441.08 1125.79,441.08 1091.18,401.23 1073.83,418.83 1073.83,441.08 1064.9,441.08 
			1064.9,356.33 1073.83,356.33 1073.83,407.53 1123.62,356.33 1133.91,356.33 1097.24,394.77 		"/>
		<polygon class="st1" points="1268.89,433.36 1268.89,441.08 1208.97,441.08 1208.97,356.33 1267.08,356.33 1267.08,364.1 
			1217.9,364.1 1217.9,394.27 1261.73,394.27 1261.73,401.88 1217.9,401.88 1217.9,433.36 		"/>
		<path class="st1" d="M1364.4,441.1V364.1h-29.78v-7.75h68.52v7.75h-29.78v76.99H1364.4z"/>
		<path class="st1" d="M1475.42,441.1v-84.74h8.96v84.74H1475.42z"/>
		<polygon class="st1" points="1640.81,356.33 1640.81,441.08 1633.39,441.08 1578.91,372.37 1578.91,441.08 1569.99,441.08 
			1569.99,356.33 1577.35,356.33 1631.93,425.09 1631.93,356.33 		"/>
		<path class="st1" d="M1786.08,398.71h8.58v32.33c-4.04,3.58-8.78,6.25-14.17,8.07c-5.4,1.82-11.05,2.72-16.95,2.72
			c-6.46,0-12.41-1.06-17.86-3.23c-5.45-2.12-10.19-5.14-14.17-9.03c-3.98-3.83-7.11-8.42-9.33-13.67
			c-2.22-5.25-3.33-10.95-3.33-17.2c0-6.2,1.11-11.9,3.33-17.15c2.22-5.25,5.35-9.84,9.38-13.72c4.09-3.83,8.78-6.86,14.23-8.98
			c5.45-2.17,11.4-3.23,17.86-3.23s12.41,1.01,17.76,3.03c5.35,2.02,9.94,5.09,13.72,9.18l-5.55,5.7c-3.53-3.53-7.47-6.1-11.75-7.62
			c-4.29-1.51-8.88-2.32-13.77-2.32c-5.25,0-10.09,0.91-14.48,2.62c-4.39,1.77-8.22,4.19-11.5,7.36c-3.28,3.23-5.8,6.91-7.62,11.15
			c-1.82,4.24-2.72,8.93-2.72,13.97s0.91,9.68,2.72,13.92c1.82,4.29,4.34,8.02,7.62,11.2c3.28,3.23,7.11,5.65,11.5,7.42
			c4.39,1.71,9.18,2.57,14.33,2.57c4.84,0,9.43-0.71,13.77-2.17c2.98-1.01,5.75-2.47,8.42-4.44V398.71z"/>
	</g>
	<g>
		<g>
			<path class="st1" d="M290.97,109.3L124.89,275.38l69.27,69.27l96.63-96.63l96.57,96.51l0.24,0.24l69.45-69.39L290.97,109.3z
				 M308.85,229.95l-18.06-18.06l-18.06,18.06l-78.57,78.57l-33.14-33.14l129.96-129.96l129.96,129.96l-33.33,33.26L308.85,229.95z"
				/>
			<polygon class="st2" points="420.92,275.38 387.6,308.64 308.85,229.95 290.79,211.89 272.72,229.95 194.15,308.52 
				161.01,275.38 290.97,145.42 			"/>
		</g>
		<g>
			<polygon class="st1" points="290.94,441.07 212.91,362.99 290.94,284.97 369.02,362.99 			"/>
		</g>
	</g>
</g>
</svg>
